<svg width="175" height="130" xmlns="http://www.w3.org/2000/svg" xmlns:xlink="http://www.w3.org/1999/xlink" overflow="hidden"><defs><clipPath id="clip0"><rect x="38" y="203" width="175" height="130"/></clipPath></defs><g clip-path="url(#clip0)" transform="translate(-38 -203)"><path d="M0 0 0 0" stroke="#449FDB" stroke-width="3.09524" fill="none" transform="matrix(1.00962 0 0 1 38 204.548)"/><path d="M34.4067 128.551C23.7776 128.551 13.4148 127.901 2.71143 126.546 1.15762 126.348-1.7182e-15 125.029-1.7182e-15 123.469L-1.7182e-15 49.171C-1.7182e-15 48.2857 0.38381 47.4376 1.04619 46.8495 1.70857 46.2614 2.58762 45.9829 3.47905 46.1005 13.9286 47.419 24.0624 48.0567 34.4376 48.0567 48.5891 48.0567 61.5086 46.8495 74.001 45.6857 86.6357 44.4971 99.6976 43.2776 114.146 43.2776 124.788 43.2776 135.15 43.9338 145.848 45.2771 147.414 45.469 148.571 46.7876 148.571 48.3476L148.571 122.633C148.571 123.531 148.181 124.367 147.519 124.955 146.857 125.549 145.971 125.828 145.086 125.704 134.63 124.379 124.497 123.754 114.121 123.754 99.9638 123.754 87.0381 124.955 74.5457 126.137 61.9171 127.313 48.8552 128.551 34.4067 128.551ZM6.19048 120.727C15.6805 121.829 24.9352 122.361 34.4005 122.361 48.5581 122.361 61.4838 121.154 73.9762 119.978 86.6171 118.795 99.6729 117.57 114.121 117.57 123.605 117.57 132.879 118.09 142.369 119.154L142.369 51.0962C132.879 50.0005 123.624 49.4681 114.14 49.4681 99.9824 49.4681 87.0567 50.6752 74.5643 51.8514 61.9295 53.0276 48.8738 54.2533 34.4314 54.2533 24.9662 54.2533 15.6929 53.7333 6.19048 52.6624L6.19048 120.727Z" fill="#4D2B08" transform="matrix(1.00962 0 0 1 38 204.548)"/><path d="M157.857 114.759C156.155 114.759 154.762 113.372 154.762 111.664L154.762 40.1143C127.945 37.0314 107.126 38.9814 86.9762 40.8695 65.7986 42.8505 43.9029 44.8933 15.0924 41.2657 13.4024 41.049 12.2014 39.5014 12.4057 37.8052 12.6162 36.1152 14.1452 34.9081 15.8662 35.1186 44.0267 38.6719 65.5633 36.6476 86.4067 34.7038 107.56 32.7229 129.437 30.68 158.253 34.3014 159.801 34.4995 160.965 35.8119 160.965 37.3719L160.965 111.664C160.952 113.372 159.56 114.759 157.857 114.759Z" fill="#4D2B08" transform="matrix(1.00962 0 0 1 38 204.548)"/><path d="M170.238 102.483C168.536 102.483 167.143 101.097 167.143 99.3881L167.143 27.8386C140.326 24.7557 119.507 26.7057 99.351 28.5876 78.1857 30.5686 56.2838 32.6176 27.4733 28.9838 25.7771 28.7733 24.57 27.2195 24.7805 25.5233 24.9971 23.8333 26.5138 22.6324 28.241 22.8367 56.3952 26.3838 77.9319 24.3719 98.7691 22.4219 119.94 20.4348 141.811 18.3919 170.622 22.0133 172.176 22.2052 173.333 23.5238 173.333 25.0838L173.333 99.3695C173.333 101.097 171.94 102.483 170.238 102.483Z" fill="#4D2B08" transform="matrix(1.00962 0 0 1 38 204.548)"/><path d="M34.4067 116.17C27.9748 116.17 21.7038 115.917 15.2348 115.397 13.5324 115.267 12.2633 113.762 12.3995 112.06 12.5357 110.37 14.009 109.095 15.7362 109.231 22.0443 109.739 28.1543 109.98 34.4129 109.98 36.1214 109.98 37.5081 111.379 37.5081 113.075 37.5019 114.778 36.1091 116.17 34.4067 116.17Z" fill="#4D2B08" transform="matrix(1.00962 0 0 1 38 204.548)"/><path d="M133.095 62.6105C133.009 62.6105 132.94 62.6105 132.841 62.6043 126.577 62.0967 120.473 61.8491 114.146 61.8491 112.444 61.8491 111.051 60.4624 111.051 58.7538 111.051 57.0452 112.444 55.6586 114.146 55.6586 120.628 55.6586 126.905 55.9124 133.337 56.4262 135.039 56.5686 136.308 58.0605 136.178 59.7629 136.06 61.3786 134.692 62.6105 133.095 62.6105Z" fill="#4D2B08" transform="matrix(1.00962 0 0 1 38 204.548)"/><path d="M71.4505 99.5924C65.4643 99.5924 61.2795 95.8843 61.2795 90.5976 61.2795 88.8952 62.6662 87.5024 64.3748 87.5024 66.0833 87.5024 67.47 88.8952 67.47 90.5976 67.47 93.0429 69.9648 93.4019 71.4505 93.4019 72.9362 93.4019 75.431 93.0243 75.431 90.5976 75.431 89.1614 75.431 88.9324 71.2029 86.8586L68.9557 85.7381C64.8391 83.7014 61.2857 81.9619 61.2857 76.4524 61.2857 71.1286 65.4705 67.4081 71.4567 67.4081 77.3871 67.4081 81.5286 71.1286 81.5286 76.4524 81.5286 78.161 80.1419 79.5476 78.4333 79.5476 76.7248 79.5476 75.3381 78.161 75.3381 76.4524 75.3381 74.1 73.2271 73.5986 71.4567 73.5986 69.971 73.5986 67.4762 73.97 67.4762 76.4524 67.4762 77.8886 67.4762 78.1052 71.6981 80.1852L73.9514 81.3119C78.0743 83.3424 81.6338 85.0881 81.6338 90.5976 81.6276 95.8843 77.4367 99.5924 71.4505 99.5924Z" fill="#4D2B08" transform="matrix(1.00962 0 0 1 38 204.548)"/><path d="M71.1905 68.0395C70.3857 68.0395 69.581 67.7362 69.0238 67.111 68.4048 66.56 68.0952 65.7552 68.0952 64.9443 68.0952 64.1395 68.4048 63.3348 69.0238 62.7776 70.1381 61.6014 72.181 61.6014 73.3571 62.7776 73.9762 63.3348 74.2857 64.1395 74.2857 64.9443 74.2857 65.7491 73.9762 66.56 73.3571 67.111 72.8 67.7362 71.9952 68.0395 71.1905 68.0395Z" fill="#4D2B08" transform="matrix(1.00962 0 0 1 38 204.548)"/><path d="M68.0952 64.9443 74.2857 64.9443 74.2857 71.1348 68.0952 71.1348 68.0952 64.9443Z" fill="#4D2B08" transform="matrix(1.00962 0 0 1 38 204.548)"/><path d="M71.1905 105.182C70.3857 105.182 69.581 104.873 69.0238 104.26 68.4048 103.703 68.0952 102.898 68.0952 102.087 68.0952 101.282 68.4048 100.471 69.0238 99.9143 70.1381 98.7443 72.2429 98.7443 73.3571 99.9143 73.9762 100.471 74.2857 101.282 74.2857 102.087 74.2857 102.892 73.9762 103.703 73.3571 104.26 72.8 104.873 71.9952 105.182 71.1905 105.182Z" fill="#4D2B08" transform="matrix(1.00962 0 0 1 38 204.548)"/><path d="M68.0952 95.8967 74.2857 95.8967 74.2857 102.087 68.0952 102.087 68.0952 95.8967Z" fill="#4D2B08" transform="matrix(1.00962 0 0 1 38 204.548)"/></g></svg>