<svg width="159" height="129" xmlns="http://www.w3.org/2000/svg" xmlns:xlink="http://www.w3.org/1999/xlink" overflow="hidden"><defs><clipPath id="clip0"><rect x="258" y="199" width="159" height="129"/></clipPath></defs><g clip-path="url(#clip0)" transform="translate(-258 -199)"><path d="M115.445 108.467C115.445 110.477 116.338 112.486 118.125 114.384 120.86 117.343 125.438 119.799 131.076 121.307 135.374 122.479 140.008 123.093 144.92 123.093 149.721 123.093 154.522 122.479 158.765 121.307 164.403 119.744 168.981 117.287 171.716 114.384 173.503 112.486 174.396 110.477 174.396 108.411L174.396 103.499C174.34 103.554 174.284 103.61 174.172 103.666 174.061 103.778 174.005 103.834 173.893 103.945 173.782 104.057 173.614 104.169 173.447 104.336 173.335 104.392 173.223 104.503 173.168 104.559 173 104.671 172.833 104.783 172.721 104.95 172.609 105.006 172.498 105.118 172.442 105.173 172.274 105.285 172.107 105.452 171.939 105.564 171.828 105.62 171.772 105.676 171.66 105.732 171.437 105.899 171.214 106.067 170.99 106.178 170.935 106.234 170.879 106.234 170.823 106.29 170.544 106.457 170.265 106.681 169.93 106.848 169.874 106.904 169.818 106.904 169.706 106.96 169.483 107.071 169.26 107.239 168.981 107.351 168.869 107.406 168.757 107.462 168.646 107.518 168.423 107.63 168.255 107.741 168.032 107.853 167.92 107.909 167.808 107.965 167.641 108.02 167.418 108.132 167.25 108.244 167.027 108.3 166.915 108.355 166.748 108.411 166.636 108.467 166.413 108.579 166.245 108.634 166.022 108.746 165.91 108.802 165.743 108.858 165.575 108.914 165.352 109.025 165.185 109.081 164.961 109.193 164.794 109.249 164.682 109.304 164.515 109.36 164.292 109.416 164.068 109.528 163.845 109.583 163.677 109.639 163.566 109.695 163.398 109.751 163.175 109.807 162.952 109.918 162.728 109.974 162.561 110.03 162.449 110.086 162.282 110.142 162.003 110.253 161.779 110.309 161.5 110.365 161.389 110.421 161.277 110.421 161.165 110.477 160.775 110.588 160.384 110.7 159.993 110.812 155.304 112.096 150.168 112.765 144.865 112.765 139.505 112.765 134.425 112.096 129.736 110.812 129.345 110.7 128.955 110.588 128.564 110.477 128.452 110.421 128.341 110.421 128.173 110.365 127.894 110.309 127.671 110.198 127.392 110.142 127.224 110.086 127.112 110.03 126.945 109.974 126.722 109.918 126.498 109.807 126.275 109.751 126.108 109.695 125.996 109.639 125.828 109.583 125.605 109.528 125.382 109.416 125.214 109.36 125.047 109.304 124.935 109.249 124.768 109.193 124.544 109.137 124.377 109.025 124.154 108.969 123.986 108.914 123.875 108.858 123.707 108.802 123.484 108.69 123.316 108.634 123.149 108.523 122.981 108.467 122.87 108.411 122.702 108.3 122.535 108.188 122.311 108.132 122.144 108.02 122.032 107.965 121.865 107.909 121.753 107.797 121.53 107.685 121.362 107.574 121.195 107.518 121.083 107.462 120.972 107.406 120.86 107.351 120.637 107.239 120.413 107.127 120.246 106.96 120.134 106.904 120.079 106.848 119.967 106.792 119.688 106.625 119.409 106.457 119.074 106.234 119.018 106.178 118.962 106.178 118.906 106.122 118.683 105.955 118.46 105.843 118.236 105.676 118.125 105.62 118.069 105.564 117.957 105.452 117.79 105.341 117.622 105.229 117.455 105.062 117.343 105.006 117.231 104.894 117.12 104.838 116.952 104.727 116.841 104.615 116.673 104.503 116.562 104.392 116.45 104.336 116.394 104.224 116.227 104.113 116.115 104.001 116.003 103.889 115.892 103.778 115.78 103.722 115.724 103.61 115.668 103.554 115.613 103.499 115.501 103.443L115.501 108.467Z" fill="#4D2B08" transform="matrix(1.00254 0 0 1 194.31 120.617)"/><path d="M131.076 106.067C135.374 107.239 140.008 107.853 144.92 107.853 149.721 107.853 154.522 107.239 158.765 106.067 164.403 104.503 168.981 102.047 171.716 99.1443 173.503 97.2463 174.396 95.2366 174.396 93.1711 174.396 85.244 160.886 78.4893 144.976 78.4893 129.01 78.4893 115.501 85.1882 115.501 93.1711 115.501 95.1808 116.394 97.1905 118.18 99.1443 120.804 102.047 125.438 104.503 131.076 106.067Z" fill="#4D2B08" transform="matrix(1.00254 0 0 1 194.31 120.617)"/><path d="M127.615 146.707 127.615 150.838C127.726 150.894 127.782 150.894 127.894 150.949 128.229 151.061 128.62 151.229 129.01 151.34 129.178 151.396 129.29 151.452 129.457 151.508 129.959 151.675 130.462 151.843 130.964 151.954 131.02 151.954 131.02 151.954 131.076 151.954 135.319 153.127 140.064 153.741 144.92 153.741 149.777 153.741 154.522 153.127 158.765 151.954 158.821 151.954 158.821 151.954 158.877 151.954 162.728 150.894 166.078 149.386 168.646 147.656 169.818 146.874 170.879 145.981 171.716 145.088 173.503 143.19 174.396 141.18 174.396 139.17L174.396 134.258C174.34 134.314 174.284 134.37 174.228 134.425 174.117 134.537 174.005 134.649 173.837 134.76 173.726 134.872 173.614 134.928 173.503 135.039 173.391 135.151 173.223 135.263 173.112 135.374 173 135.486 172.888 135.542 172.777 135.654 172.665 135.765 172.498 135.877 172.386 135.933 172.274 136.044 172.107 136.1 171.995 136.212 171.884 136.323 171.716 136.435 171.605 136.491 171.493 136.603 171.325 136.658 171.214 136.77 170.935 136.938 170.656 137.105 170.376 137.272 170.209 137.384 170.097 137.44 169.93 137.552 169.762 137.663 169.595 137.719 169.483 137.831 169.316 137.887 169.204 137.998 169.037 138.054 168.869 138.166 168.702 138.221 168.534 138.333 168.367 138.389 168.255 138.501 168.088 138.556 167.92 138.668 167.753 138.724 167.585 138.78 167.418 138.836 167.25 138.947 167.139 139.003 166.971 139.059 166.804 139.17 166.636 139.226 166.469 139.282 166.301 139.394 166.134 139.45 165.966 139.505 165.799 139.617 165.631 139.673 165.464 139.729 165.296 139.84 165.073 139.896 164.906 139.952 164.738 140.008 164.571 140.119 164.403 140.175 164.18 140.287 163.957 140.343 163.789 140.399 163.622 140.454 163.454 140.51 163.231 140.566 163.008 140.678 162.784 140.734 162.673 140.789 162.505 140.845 162.393 140.845 162.114 140.957 161.779 141.013 161.5 141.124 161.444 141.124 161.333 141.18 161.277 141.18 160.886 141.292 160.495 141.403 160.105 141.515 159.211 141.738 158.318 141.962 157.425 142.185 154.69 142.799 151.843 143.19 148.884 143.357 147.6 143.413 146.26 143.469 144.92 143.469 143.581 143.469 142.241 143.413 140.957 143.357 138.11 143.19 135.319 142.799 132.639 142.241 131.69 142.018 130.685 141.794 129.736 141.571 129.68 141.571 129.68 141.571 129.624 141.515 129.066 141.348 128.508 141.18 127.95 141.013 127.838 140.957 127.726 140.957 127.559 140.901 127.001 140.734 126.442 140.51 125.884 140.343 125.828 140.343 125.828 140.343 125.773 140.287 127.001 142.297 127.615 144.474 127.615 146.707Z" fill="#4D2B08" transform="matrix(1.00254 0 0 1 194.31 120.617)"/><path d="M174.34 118.85C174.284 118.906 174.228 118.962 174.117 119.018 174.005 119.129 173.949 119.185 173.837 119.297 173.726 119.409 173.558 119.52 173.447 119.632 173.335 119.744 173.223 119.799 173.168 119.911 173 120.023 172.888 120.134 172.721 120.246 172.609 120.302 172.498 120.413 172.386 120.469 172.219 120.581 172.051 120.693 171.884 120.86 171.772 120.916 171.716 121.028 171.605 121.083 171.381 121.251 171.158 121.362 170.99 121.53 170.935 121.586 170.879 121.642 170.823 121.642 170.544 121.809 170.265 121.977 169.93 122.2 169.874 122.256 169.762 122.311 169.706 122.367 169.483 122.479 169.26 122.646 169.037 122.758 168.925 122.814 168.813 122.87 168.702 122.926 168.534 123.037 168.311 123.149 168.088 123.26 167.976 123.316 167.808 123.372 167.697 123.484 167.529 123.595 167.306 123.651 167.139 123.763 167.027 123.819 166.859 123.875 166.692 123.93 166.524 124.042 166.301 124.098 166.078 124.21 165.91 124.265 165.799 124.321 165.631 124.377 165.408 124.489 165.241 124.544 165.017 124.6 164.85 124.656 164.738 124.712 164.571 124.768 164.347 124.824 164.124 124.935 163.957 124.991 163.789 125.047 163.677 125.103 163.51 125.159 163.287 125.214 163.063 125.326 162.84 125.382 162.673 125.438 162.561 125.493 162.393 125.549 162.114 125.605 161.891 125.717 161.612 125.773 161.5 125.828 161.389 125.828 161.221 125.884 160.83 125.996 160.44 126.108 160.049 126.219 155.36 127.503 150.224 128.173 144.92 128.173 139.561 128.173 134.481 127.503 129.792 126.219 129.401 126.108 129.01 125.996 128.62 125.884 128.508 125.828 128.341 125.828 128.229 125.773 127.95 125.717 127.726 125.605 127.447 125.549 127.28 125.493 127.168 125.438 127.001 125.382 126.777 125.326 126.554 125.214 126.331 125.159 126.163 125.103 126.052 125.047 125.884 124.991 125.661 124.935 125.438 124.824 125.27 124.768 125.103 124.712 124.991 124.656 124.824 124.6 124.6 124.544 124.433 124.433 124.21 124.377 124.042 124.321 123.93 124.265 123.763 124.21 123.54 124.098 123.372 124.042 123.205 123.93 123.037 123.875 122.926 123.819 122.758 123.707 122.591 123.595 122.367 123.54 122.2 123.428 122.088 123.372 121.921 123.316 121.809 123.205 121.642 123.093 121.418 122.981 121.251 122.926 121.139 122.87 121.028 122.814 120.86 122.758 120.637 122.646 120.413 122.535 120.246 122.423 120.134 122.367 120.079 122.311 119.967 122.256 119.688 122.088 119.409 121.921 119.129 121.697 119.074 121.642 118.962 121.586 118.906 121.53 118.683 121.418 118.515 121.251 118.292 121.139 118.18 121.083 118.069 120.972 117.957 120.916 117.79 120.804 117.622 120.693 117.455 120.581 117.343 120.525 117.231 120.413 117.12 120.358 116.952 120.246 116.841 120.134 116.673 120.023 116.562 119.911 116.45 119.855 116.338 119.744 116.227 119.632 116.059 119.52 115.947 119.409 115.836 119.297 115.724 119.241 115.668 119.129 115.613 119.074 115.557 119.018 115.501 118.962L115.501 123.875C115.501 125.438 116.003 126.945 117.064 128.452 117.399 128.899 117.734 129.401 118.18 129.848 120.469 132.304 123.986 134.37 128.341 135.933 129.234 136.268 130.183 136.547 131.132 136.826 132.025 137.049 132.918 137.272 133.867 137.496 136.212 137.998 138.612 138.333 141.124 138.501 142.408 138.556 143.636 138.612 144.976 138.612 146.26 138.612 147.6 138.556 148.884 138.501 151.117 138.333 153.294 138.054 155.36 137.663 155.415 137.663 155.471 137.663 155.527 137.607 155.639 137.607 155.695 137.552 155.806 137.552 156.811 137.328 157.816 137.105 158.821 136.826 160.105 136.491 161.277 136.1 162.449 135.654 166.413 134.146 169.706 132.137 171.828 129.904 172.163 129.513 172.498 129.122 172.777 128.731 173.893 127.168 174.507 125.549 174.507 123.93L174.507 118.85Z" fill="#4D2B08" transform="matrix(1.00254 0 0 1 194.31 120.617)"/><path d="M158.151 172.609C157.593 172.721 157.034 172.833 156.476 172.944 156.309 173 156.141 173 155.974 173.056 155.583 173.112 155.136 173.223 154.69 173.279 154.466 173.335 154.243 173.335 154.02 173.391 153.629 173.447 153.294 173.503 152.903 173.558 152.68 173.614 152.401 173.614 152.178 173.67 151.787 173.726 151.452 173.782 151.061 173.782 150.838 173.782 150.559 173.837 150.335 173.837 149.945 173.893 149.554 173.893 149.219 173.949 148.996 173.949 148.772 174.005 148.493 174.005 148.102 174.005 147.656 174.061 147.265 174.061 147.042 174.061 146.874 174.061 146.651 174.061 146.037 174.061 145.423 174.117 144.753 174.117 139.394 174.117 134.314 173.447 129.569 172.163 128.955 171.995 128.341 171.828 127.726 171.605 127.671 171.605 127.559 171.549 127.503 171.549L127.503 181.541C127.615 181.597 127.671 181.597 127.782 181.653 128.173 181.765 128.508 181.932 128.899 182.044 129.066 182.1 129.178 182.155 129.345 182.211 129.848 182.379 130.35 182.546 130.908 182.658 135.207 183.83 139.84 184.444 144.753 184.444 145.367 184.444 145.925 184.444 146.539 184.388 146.763 184.388 146.93 184.388 147.153 184.388 147.544 184.388 147.935 184.333 148.326 184.333 148.549 184.333 148.772 184.277 149.051 184.277 149.386 184.277 149.777 184.221 150.112 184.221 150.335 184.221 150.615 184.165 150.838 184.165 151.173 184.109 151.508 184.109 151.843 184.053 152.122 183.998 152.345 183.998 152.624 183.942 152.959 183.886 153.238 183.83 153.573 183.83 153.852 183.774 154.076 183.718 154.355 183.718 154.634 183.663 154.969 183.607 155.248 183.551 155.527 183.495 155.75 183.439 155.974 183.383 156.253 183.328 156.588 183.272 156.867 183.216 157.09 183.16 157.369 183.104 157.593 183.049 157.76 182.993 157.983 182.937 158.151 182.881L158.151 172.609Z" fill="#4D2B08" transform="matrix(1.00254 0 0 1 194.31 120.617)"/><path d="M127.615 166.19C127.726 166.245 127.782 166.245 127.894 166.301 128.229 166.413 128.62 166.58 129.01 166.692 129.178 166.748 129.29 166.804 129.457 166.859 129.959 167.027 130.462 167.194 131.02 167.306 135.319 168.478 139.952 169.092 144.865 169.092 145.479 169.092 146.037 169.092 146.651 169.037 146.874 169.037 147.042 169.037 147.209 169.037 147.6 169.037 147.991 168.981 148.382 168.981 148.605 168.981 148.828 168.925 149.107 168.925 149.442 168.925 149.833 168.869 150.168 168.869 150.391 168.869 150.67 168.813 150.894 168.813 151.229 168.757 151.564 168.757 151.898 168.702 152.178 168.646 152.401 168.646 152.624 168.59 152.959 168.534 153.238 168.478 153.573 168.478 153.852 168.423 154.076 168.367 154.299 168.367 154.578 168.311 154.913 168.255 155.192 168.199 155.415 168.143 155.695 168.088 155.918 168.032 156.197 167.976 156.532 167.92 156.811 167.864 157.034 167.808 157.313 167.753 157.537 167.697 157.704 167.641 157.928 167.585 158.095 167.529L158.095 162.17C158.095 160.44 158.486 158.765 159.156 157.146 158.988 157.202 158.765 157.258 158.597 157.258 158.318 157.313 158.039 157.369 157.76 157.425 157.425 157.481 157.146 157.537 156.811 157.648 156.532 157.704 156.253 157.76 155.974 157.816 155.639 157.872 155.304 157.928 154.969 157.983 154.69 158.039 154.411 158.095 154.131 158.151 153.796 158.207 153.462 158.262 153.127 158.318 152.847 158.374 152.568 158.374 152.289 158.43 151.954 158.486 151.564 158.486 151.229 158.542 150.949 158.597 150.726 158.597 150.447 158.653 150.056 158.709 149.665 158.709 149.331 158.765 149.107 158.765 148.828 158.821 148.605 158.821 148.158 158.821 147.767 158.877 147.321 158.877 147.098 158.877 146.874 158.877 146.707 158.932 146.093 158.932 145.423 158.988 144.753 158.988 139.45 158.988 134.37 158.318 129.68 157.034 129.68 157.034 129.624 157.034 129.624 157.034 129.01 156.867 128.396 156.699 127.782 156.476 127.726 156.476 127.615 156.42 127.559 156.42L127.559 166.19Z" fill="#4D2B08" transform="matrix(1.00254 0 0 1 194.31 120.617)"/><path d="M159.267 197.73C158.542 196.111 158.151 194.381 158.151 192.65L158.151 187.905C157.593 188.017 157.034 188.129 156.476 188.296 156.309 188.352 156.141 188.352 155.974 188.408 155.583 188.464 155.136 188.575 154.746 188.631 154.522 188.687 154.299 188.687 154.076 188.743 153.685 188.798 153.35 188.854 152.959 188.91 152.736 188.966 152.513 188.966 152.233 189.022 151.843 189.078 151.508 189.133 151.117 189.133 150.894 189.133 150.615 189.189 150.391 189.189 150 189.245 149.61 189.245 149.275 189.301 149.051 189.301 148.828 189.357 148.549 189.357 148.158 189.357 147.712 189.413 147.321 189.413 147.098 189.413 146.93 189.413 146.707 189.413 146.093 189.413 145.479 189.468 144.809 189.468 139.45 189.468 134.37 188.798 129.624 187.514 129.01 187.347 128.396 187.18 127.782 186.956 127.726 186.956 127.615 186.9 127.559 186.9L127.559 192.762C127.559 194.102 127.336 195.386 126.889 196.67 132.025 198.679 138.277 199.796 144.753 199.796 149.945 199.684 154.913 199.014 159.267 197.73Z" fill="#4D2B08" transform="matrix(1.00254 0 0 1 194.31 120.617)"/><path d="M66.3753 152.68C69.1107 155.639 73.6883 158.095 79.3266 159.602 83.6251 160.775 88.2585 161.389 93.1711 161.389 94.9575 161.389 96.7997 161.277 98.5302 161.11 101.489 160.83 104.336 160.328 106.96 159.602 110.142 158.765 112.989 157.593 115.333 156.197 117.176 155.136 118.739 153.964 119.911 152.68 121.697 150.782 122.591 148.772 122.591 146.707 122.591 138.78 109.081 132.025 93.1153 132.025 77.1495 132.025 63.6399 138.724 63.6399 146.707 63.6399 146.986 63.6399 147.209 63.6958 147.488 63.9749 149.275 64.8681 151.005 66.3753 152.68Z" fill="#4D2B08" transform="matrix(1.00254 0 0 1 194.31 120.617)"/><path d="M121.697 188.519C121.586 188.631 121.474 188.687 121.362 188.798 121.195 188.91 121.083 189.022 120.916 189.133 120.804 189.189 120.693 189.301 120.581 189.357 120.413 189.468 120.246 189.58 120.079 189.747 119.967 189.803 119.911 189.859 119.799 189.971 119.576 190.138 119.353 190.25 119.129 190.417 119.074 190.473 119.018 190.473 118.962 190.529 118.683 190.697 118.404 190.864 118.069 191.087 118.013 191.143 117.901 191.143 117.846 191.199 117.622 191.311 117.399 191.478 117.176 191.59 117.064 191.646 116.952 191.701 116.841 191.757 116.617 191.869 116.45 191.98 116.227 192.092 116.115 192.148 116.003 192.204 115.836 192.26 115.613 192.371 115.445 192.427 115.222 192.539 115.11 192.595 114.943 192.65 114.831 192.706 114.608 192.818 114.44 192.874 114.217 192.985 114.049 193.041 113.938 193.097 113.77 193.153 113.547 193.264 113.38 193.32 113.156 193.432 112.989 193.488 112.877 193.544 112.71 193.599 112.486 193.655 112.263 193.767 112.04 193.823 111.872 193.878 111.761 193.934 111.593 193.99 111.37 194.046 111.147 194.158 110.923 194.213 110.756 194.269 110.644 194.325 110.477 194.381 110.198 194.437 109.974 194.548 109.695 194.604 109.583 194.66 109.472 194.66 109.304 194.716 108.914 194.827 108.523 194.939 108.132 195.051 103.443 196.335 98.3069 197.005 93.0036 197.005 87.6445 197.005 82.5644 196.335 77.8752 195.051 77.4844 194.939 77.0936 194.827 76.7029 194.716 76.5912 194.66 76.4237 194.66 76.3121 194.604 76.033 194.548 75.8097 194.437 75.5864 194.381 75.4189 194.325 75.3073 194.269 75.1398 194.213 74.9165 194.158 74.6932 194.046 74.4699 193.99 74.3024 193.934 74.1349 193.878 74.0233 193.823 73.8 193.767 73.6325 193.655 73.4092 193.599 73.2417 193.544 73.0743 193.488 72.9626 193.432 72.7393 193.376 72.5719 193.264 72.3486 193.209 72.1811 193.153 72.0694 193.097 71.902 193.041 71.7345 192.929 71.5112 192.874 71.3437 192.762 71.1762 192.706 71.0646 192.65 70.8971 192.539 70.7296 192.427 70.5063 192.371 70.3389 192.26 70.2272 192.204 70.0597 192.148 69.9481 192.036 69.7806 191.925 69.5573 191.813 69.3899 191.757 69.2782 191.701 69.1666 191.646 68.9991 191.534 68.7758 191.422 68.5525 191.311 68.385 191.199 68.2734 191.143 68.2175 191.087 68.1059 191.031 67.8268 190.864 67.5476 190.697 67.2685 190.473 67.2127 190.417 67.1569 190.417 67.1011 190.362 66.8778 190.194 66.6545 190.082 66.4312 189.915 66.3195 189.859 66.2079 189.747 66.152 189.692 65.9846 189.58 65.8171 189.468 65.6496 189.357 65.538 189.301 65.4263 189.189 65.3147 189.133 65.1472 189.022 65.0355 188.91 64.8681 188.798 64.7564 188.687 64.6448 188.631 64.5331 188.519 64.4215 188.408 64.254 188.296 64.1423 188.184 64.0307 188.073 63.9191 188.017 63.8632 187.905 63.8074 187.849 63.7516 187.794 63.6958 187.738L63.6958 192.65C63.6958 194.716 64.5889 196.67 66.3753 198.568 69.1107 201.471 73.6325 203.927 79.215 205.49 79.2708 205.49 79.2708 205.49 79.3266 205.49 83.5693 206.662 88.3144 207.276 93.1711 207.276 97.972 207.276 102.773 206.662 107.016 205.49 107.071 205.49 107.071 205.49 107.127 205.49 112.71 203.983 117.287 201.526 119.967 198.568 121.753 196.67 122.646 194.66 122.646 192.65L122.646 187.738C122.591 187.794 122.535 187.849 122.479 187.905 122.367 188.017 122.256 188.073 122.2 188.184 121.977 188.296 121.865 188.408 121.697 188.519Z" fill="#4D2B08" transform="matrix(1.00254 0 0 1 194.31 120.617)"/><path d="M63.6958 162.059C63.6958 164.068 64.5889 166.078 66.3753 167.976 69.1107 170.935 73.6883 173.391 79.3266 174.898 83.6251 176.07 88.2585 176.685 93.1711 176.685 94.9575 176.685 96.7997 176.573 98.5302 176.405 101.489 176.126 104.336 175.624 106.96 174.898 110.812 173.837 114.217 172.33 116.841 170.544 118.013 169.706 119.074 168.869 119.911 167.92 121.697 166.022 122.591 164.012 122.591 161.947L122.591 157.034C122.535 157.09 122.479 157.146 122.367 157.202 122.256 157.313 122.2 157.369 122.088 157.481 121.921 157.593 121.809 157.704 121.642 157.872 121.53 157.928 121.418 158.039 121.362 158.095 121.195 158.207 121.083 158.318 120.916 158.486 120.804 158.542 120.693 158.653 120.637 158.709 120.469 158.821 120.302 158.988 120.134 159.1 120.023 159.156 119.967 159.211 119.855 159.323 119.632 159.491 119.409 159.602 119.185 159.77 119.129 159.826 119.074 159.826 119.018 159.881 118.739 160.049 118.46 160.216 118.125 160.44 118.069 160.495 117.957 160.551 117.901 160.551 117.678 160.663 117.455 160.83 117.231 160.942 117.12 160.998 117.008 161.054 116.896 161.11 116.729 161.221 116.506 161.333 116.282 161.444 116.171 161.5 116.003 161.556 115.892 161.668 115.724 161.779 115.501 161.835 115.333 161.947 115.166 162.003 115.054 162.059 114.887 162.17 114.719 162.282 114.496 162.338 114.329 162.449 114.161 162.505 114.049 162.561 113.882 162.617 113.659 162.673 113.491 162.784 113.268 162.84 113.1 162.896 112.989 162.952 112.821 163.008 112.598 163.063 112.431 163.175 112.207 163.231 112.04 163.287 111.928 163.342 111.761 163.398 111.537 163.454 111.314 163.566 111.091 163.622 110.923 163.677 110.812 163.733 110.644 163.789 110.421 163.845 110.142 163.957 109.918 164.012 109.807 164.068 109.639 164.068 109.528 164.124 109.137 164.236 108.746 164.347 108.355 164.459 103.666 165.743 98.5302 166.413 93.2269 166.413 87.8678 166.413 82.7877 165.743 78.0985 164.459 77.7077 164.347 77.3169 164.236 76.9262 164.124 76.8145 164.068 76.7029 164.068 76.5354 164.012 76.2563 163.957 76.033 163.845 75.7538 163.789 75.5864 163.733 75.4747 163.677 75.3073 163.622 75.084 163.566 74.8607 163.454 74.6374 163.398 74.4699 163.342 74.3582 163.287 74.1908 163.231 73.9675 163.175 73.7442 163.063 73.5767 163.008 73.4092 162.952 73.2976 162.896 73.1301 162.84 72.9068 162.784 72.7393 162.673 72.516 162.617 72.3486 162.561 72.2369 162.505 72.0694 162.449 71.8461 162.338 71.6787 162.282 71.4554 162.17 71.2879 162.114 71.1762 162.059 71.0088 162.003 70.7855 161.891 70.618 161.835 70.4505 161.724 70.3389 161.668 70.1714 161.612 70.0597 161.556 69.8364 161.444 69.669 161.333 69.4457 161.221 69.334 161.165 69.2224 161.11 69.1107 161.054 68.8874 160.942 68.6641 160.83 68.4408 160.663 68.385 160.607 68.2734 160.551 68.2175 160.495 67.9384 160.328 67.6035 160.16 67.3243 159.937 67.2685 159.881 67.2127 159.881 67.1569 159.826 66.9336 159.658 66.7103 159.546 66.487 159.379 66.3753 159.323 66.3195 159.267 66.2079 159.156 66.0404 159.044 65.8729 158.932 65.7054 158.765 65.5938 158.709 65.4821 158.597 65.4263 158.542 65.2588 158.43 65.1472 158.318 64.9797 158.207 64.8681 158.095 64.7564 158.039 64.6448 157.928 64.5331 157.816 64.3657 157.704 64.254 157.593 64.1423 157.481 64.0307 157.425 63.9749 157.313 63.9191 157.258 63.8632 157.202 63.7516 157.146L63.7516 162.059Z" fill="#4D2B08" transform="matrix(1.00254 0 0 1 194.31 120.617)"/><path d="M119.967 183.272C121.753 181.374 122.646 179.364 122.646 177.299L122.646 172.386C122.591 172.442 122.535 172.498 122.479 172.554 122.367 172.665 122.256 172.721 122.2 172.833 122.088 172.944 121.921 173.056 121.809 173.168 121.697 173.279 121.586 173.335 121.474 173.447 121.307 173.558 121.195 173.67 121.028 173.782 120.916 173.837 120.804 173.949 120.693 174.005 120.525 174.117 120.358 174.228 120.19 174.396 120.079 174.452 120.023 174.507 119.911 174.619 119.688 174.787 119.464 174.898 119.241 175.066 119.185 175.121 119.129 175.121 119.074 175.177 118.795 175.345 118.515 175.512 118.18 175.736 118.125 175.791 118.013 175.791 117.957 175.847 117.734 175.959 117.511 176.126 117.287 176.238 117.176 176.294 117.064 176.35 116.952 176.405 116.729 176.517 116.562 176.629 116.338 176.74 116.227 176.796 116.115 176.852 115.947 176.908 115.724 177.02 115.557 177.075 115.333 177.187 115.222 177.243 115.054 177.299 114.943 177.354 114.719 177.466 114.552 177.522 114.329 177.634 114.161 177.689 114.049 177.745 113.882 177.801 113.659 177.913 113.491 177.969 113.268 178.08 113.1 178.136 112.989 178.192 112.821 178.248 112.598 178.303 112.375 178.415 112.151 178.471 111.984 178.527 111.872 178.583 111.705 178.638 111.482 178.694 111.258 178.806 111.035 178.862 110.867 178.918 110.756 178.973 110.588 179.029 110.309 179.085 110.086 179.197 109.807 179.252 109.695 179.308 109.583 179.308 109.416 179.364 109.025 179.476 108.634 179.587 108.244 179.699 103.554 180.983 98.4186 181.653 93.1153 181.653 87.7561 181.653 82.6761 180.983 77.9868 179.699 77.5961 179.587 77.2053 179.476 76.8145 179.364 76.7029 179.308 76.5912 179.308 76.4237 179.252 76.1446 179.197 75.9213 179.085 75.6422 179.029 75.4747 178.973 75.3631 178.918 75.1956 178.862 74.9723 178.806 74.749 178.694 74.5257 178.638 74.3582 178.583 74.2466 178.527 74.0791 178.471 73.8558 178.415 73.6325 178.303 73.465 178.248 73.2976 178.192 73.1859 178.136 73.0184 178.08 72.7951 178.024 72.6277 177.913 72.4044 177.857 72.2369 177.801 72.1253 177.745 71.9578 177.689 71.7345 177.578 71.567 177.522 71.3437 177.41 71.1762 177.354 71.0646 177.299 70.8971 177.243 70.6738 177.131 70.5063 177.075 70.3389 176.964 70.2272 176.908 70.0597 176.852 69.9481 176.74 69.7248 176.629 69.5573 176.517 69.334 176.405 69.2224 176.35 69.1107 176.294 68.9991 176.238 68.7758 176.126 68.5525 176.015 68.3292 175.847 68.2175 175.791 68.1617 175.736 68.0501 175.68 67.7709 175.512 67.4918 175.345 67.1569 175.121 67.1011 175.066 67.0452 175.01 66.9336 175.01 66.7103 174.898 66.487 174.731 66.3195 174.563 66.2079 174.507 66.0962 174.396 66.0404 174.34 65.8729 174.228 65.7054 174.117 65.538 174.005 65.4263 173.949 65.3147 173.837 65.203 173.782 65.0355 173.67 64.9239 173.558 64.7564 173.447 64.6448 173.335 64.5331 173.279 64.4215 173.168 64.3098 173.056 64.1423 172.944 64.0307 172.833 63.9191 172.721 63.8074 172.665 63.6958 172.554 63.6399 172.498 63.5841 172.442 63.5283 172.386L63.5283 177.299C63.5283 179.364 64.4215 181.318 66.2079 183.216 68.9433 186.175 73.5209 188.631 79.1591 190.138 83.4576 191.311 88.0911 191.925 93.0036 191.925 94.79 191.925 96.6322 191.813 98.3628 191.646 101.321 191.366 104.169 190.864 106.792 190.138 110.644 189.078 114.049 187.57 116.673 185.784 118.069 185.114 119.074 184.221 119.967 183.272Z" fill="#4D2B08" transform="matrix(1.00254 0 0 1 194.31 120.617)"/><path d="M178.806 174.898C183.104 176.07 187.738 176.685 192.65 176.685 197.451 176.685 202.252 176.07 206.495 174.898 212.133 173.335 216.711 170.879 219.446 167.976 221.232 166.078 222.126 164.068 222.126 162.003 222.126 154.076 208.616 147.321 192.706 147.321 176.74 147.321 163.231 154.02 163.231 162.003 163.231 164.012 164.124 166.022 165.91 167.976 168.59 170.935 173.223 173.391 178.806 174.898Z" fill="#4D2B08" transform="matrix(1.00254 0 0 1 194.31 120.617)"/><path d="M219.446 198.624C221.232 196.726 222.126 194.716 222.126 192.65L222.126 187.738C222.07 187.794 222.014 187.849 221.958 187.905 221.847 188.017 221.735 188.073 221.679 188.184 221.567 188.296 221.4 188.408 221.288 188.519 221.177 188.631 221.065 188.687 220.953 188.798 220.786 188.91 220.674 189.022 220.507 189.133 220.395 189.189 220.283 189.301 220.172 189.357 220.004 189.468 219.837 189.58 219.669 189.747 219.558 189.803 219.502 189.859 219.39 189.971 219.167 190.138 218.944 190.25 218.72 190.417 218.665 190.473 218.609 190.473 218.553 190.529 218.274 190.697 217.995 190.864 217.66 191.087 217.604 191.143 217.492 191.199 217.436 191.199 217.213 191.311 216.99 191.478 216.767 191.59 216.655 191.646 216.543 191.701 216.432 191.757 216.208 191.869 216.041 191.98 215.818 192.092 215.706 192.148 215.538 192.204 215.427 192.26 215.259 192.371 215.036 192.427 214.868 192.539 214.757 192.595 214.589 192.65 214.478 192.706 214.31 192.818 214.087 192.874 213.864 192.985 213.696 193.041 213.585 193.097 213.417 193.153 213.194 193.264 213.026 193.32 212.803 193.376 212.636 193.432 212.524 193.488 212.356 193.544 212.133 193.599 211.91 193.711 211.742 193.767 211.575 193.823 211.463 193.878 211.296 193.934 211.072 193.99 210.849 194.102 210.626 194.158 210.458 194.213 210.347 194.269 210.179 194.325 209.9 194.381 209.677 194.493 209.398 194.548 209.286 194.604 209.174 194.604 209.007 194.66 208.616 194.772 208.225 194.883 207.835 194.995 203.145 196.279 198.01 196.949 192.706 196.949 187.347 196.949 182.267 196.279 177.578 194.995 177.187 194.883 176.796 194.772 176.405 194.66 176.294 194.604 176.126 194.604 176.015 194.548 175.736 194.493 175.512 194.381 175.233 194.325 175.066 194.269 174.954 194.213 174.787 194.158 174.563 194.102 174.34 193.99 174.117 193.934 173.949 193.878 173.837 193.823 173.67 193.767 173.447 193.711 173.223 193.599 173.056 193.544 172.888 193.488 172.777 193.432 172.609 193.376 172.386 193.32 172.219 193.209 171.995 193.153 171.828 193.097 171.716 193.041 171.549 192.985 171.325 192.874 171.158 192.818 170.99 192.706 170.823 192.65 170.711 192.595 170.544 192.483 170.376 192.371 170.153 192.315 169.986 192.204 169.874 192.148 169.706 192.092 169.595 191.98 169.372 191.869 169.204 191.757 168.981 191.646 168.869 191.59 168.757 191.534 168.646 191.478 168.423 191.366 168.199 191.255 167.976 191.087 167.92 191.031 167.808 190.976 167.753 190.976 167.473 190.808 167.139 190.641 166.859 190.417 166.804 190.362 166.748 190.362 166.692 190.306 166.469 190.138 166.245 190.027 166.022 189.859 165.91 189.803 165.855 189.747 165.743 189.636 165.575 189.524 165.408 189.413 165.241 189.245 165.129 189.189 165.017 189.078 164.961 189.022 164.794 188.91 164.626 188.798 164.515 188.631 164.403 188.575 164.292 188.464 164.236 188.408 164.068 188.296 163.957 188.184 163.789 188.017 163.677 187.905 163.622 187.849 163.51 187.738 163.454 187.682 163.398 187.626 163.287 187.57L163.287 192.483C163.287 194.548 164.18 196.502 165.966 198.4 168.702 201.359 173.279 203.815 178.918 205.323 183.216 206.495 187.849 207.109 192.762 207.109 197.563 207.109 202.364 206.495 206.606 205.323 212.133 203.983 216.711 201.526 219.446 198.624Z" fill="#4D2B08" transform="matrix(1.00254 0 0 1 194.31 120.617)"/><path d="M178.806 190.25C183.104 191.422 187.738 192.036 192.65 192.036 197.451 192.036 202.252 191.422 206.495 190.25 212.133 188.687 216.711 186.231 219.446 183.328 221.232 181.43 222.126 179.42 222.126 177.354L222.126 172.442C222.07 172.498 222.014 172.554 221.902 172.609 221.791 172.721 221.735 172.777 221.623 172.888 221.456 173 221.344 173.112 221.177 173.279 221.065 173.335 220.953 173.447 220.898 173.503 220.73 173.614 220.618 173.726 220.451 173.893 220.339 173.949 220.228 174.061 220.172 174.117 220.004 174.228 219.837 174.34 219.669 174.507 219.558 174.563 219.502 174.619 219.39 174.731 219.167 174.898 218.944 175.01 218.72 175.177 218.665 175.233 218.609 175.233 218.553 175.289 218.274 175.456 217.995 175.624 217.66 175.847 217.604 175.903 217.492 175.959 217.436 175.959 217.213 176.07 216.99 176.238 216.767 176.35 216.655 176.405 216.543 176.461 216.432 176.517 216.264 176.629 216.041 176.74 215.873 176.852 215.762 176.908 215.594 176.964 215.483 177.075 215.315 177.187 215.092 177.243 214.924 177.354 214.757 177.41 214.645 177.466 214.478 177.578 214.31 177.689 214.087 177.745 213.919 177.857 213.752 177.913 213.64 177.969 213.473 178.024 213.25 178.08 213.082 178.192 212.859 178.248 212.691 178.303 212.58 178.359 212.412 178.415 212.189 178.471 211.966 178.583 211.798 178.638 211.631 178.694 211.519 178.75 211.352 178.806 211.128 178.862 210.905 178.973 210.682 179.029 210.514 179.085 210.403 179.141 210.235 179.197 209.956 179.252 209.733 179.364 209.454 179.42 209.342 179.476 209.23 179.476 209.063 179.532 208.672 179.643 208.281 179.755 207.89 179.867 203.201 181.15 198.065 181.82 192.762 181.82 187.403 181.82 182.323 181.15 177.634 179.867 177.243 179.755 176.852 179.643 176.461 179.532 176.35 179.476 176.238 179.476 176.07 179.42 175.791 179.364 175.568 179.252 175.289 179.197 175.121 179.141 175.01 179.085 174.842 179.029 174.619 178.973 174.396 178.862 174.172 178.806 174.005 178.75 173.893 178.694 173.726 178.638 173.503 178.583 173.279 178.471 173.112 178.415 172.944 178.359 172.833 178.303 172.665 178.248 172.442 178.192 172.274 178.08 172.051 178.024 171.884 177.969 171.772 177.913 171.605 177.857 171.381 177.745 171.214 177.689 171.046 177.578 170.879 177.522 170.767 177.466 170.6 177.354 170.432 177.243 170.209 177.187 170.041 177.075 169.93 177.02 169.762 176.964 169.651 176.852 169.427 176.74 169.26 176.629 169.092 176.573 168.981 176.517 168.869 176.461 168.757 176.405 168.534 176.294 168.311 176.182 168.088 176.015 167.976 175.959 167.92 175.903 167.808 175.847 167.529 175.68 167.25 175.512 166.915 175.289 166.859 175.233 166.804 175.233 166.748 175.177 166.524 175.01 166.301 174.898 166.078 174.731 165.966 174.675 165.91 174.619 165.799 174.507 165.631 174.396 165.464 174.284 165.296 174.117 165.185 174.061 165.073 173.949 165.017 173.893 164.85 173.782 164.682 173.67 164.571 173.503 164.459 173.447 164.347 173.335 164.292 173.279 164.124 173.168 164.012 173.056 163.845 172.888 163.733 172.777 163.677 172.721 163.566 172.609 163.51 172.554 163.398 172.498 163.342 172.442L163.342 177.354C163.342 179.364 164.236 181.374 166.022 183.272 168.59 186.231 173.223 188.687 178.806 190.25Z" fill="#4D2B08" transform="matrix(1.00254 0 0 1 194.31 120.617)"/></g></svg>