<svg width="122" height="144" xmlns="http://www.w3.org/2000/svg" xmlns:xlink="http://www.w3.org/1999/xlink" overflow="hidden"><defs><clipPath id="clip0"><rect x="241" y="50" width="122" height="144"/></clipPath></defs><g clip-path="url(#clip0)" transform="translate(-241 -50)"><path d="M122.362 144.723C120.743 146.384 117.335 146.444 112.812 144.964L119.489 138.115C122.314 139.182 124.867 139.77 127.088 139.876ZM82.3465 123.284 89.2709 116.182C90.318 117.285 91.3968 118.38 92.506 119.462 93.6164 120.545 94.7378 121.595 95.8677 122.613L88.9433 129.715C87.8268 128.711 86.7042 127.661 85.5804 126.565 84.4687 125.483 83.3911 124.387 82.3465 123.284ZM67.9656 103.328 74.7426 96.3767C75.9955 98.8472 77.537 101.41 79.3232 104.008L72.4451 111.063C70.7952 108.615 69.3792 106.209 68.2407 103.898 68.147 103.707 68.0557 103.518 67.9656 103.328ZM66.4972 90.2559 71.2226 85.4087C71.3857 87.6271 72.0359 90.1633 73.1756 92.9613L66.4996 99.809C64.9228 95.3478 64.8887 91.9057 66.4972 90.2559ZM74.504 113.974 81.4004 106.901C83.0733 109.132 84.9119 111.375 86.8929 113.597L79.9734 120.695C77.9875 118.46 76.1562 116.207 74.504 113.974ZM91.5903 132.024 98.5111 124.925C100.783 126.849 103.072 128.63 105.345 130.246L98.449 137.319C96.222 135.759 93.9245 133.993 91.5903 132.024ZM101.413 139.303 108.288 132.249C110.933 133.971 113.532 135.445 116.035 136.636L109.26 143.584C106.839 142.507 104.197 141.078 101.413 139.303ZM89.5521 82.0396C96.7906 85.3819 104.995 91.3334 112.652 98.7997 120.31 106.266 126.467 114.315 129.992 121.467 133.155 127.885 133.806 132.986 131.735 135.109 129.665 137.233 124.55 136.712 118.055 133.711 110.816 130.369 102.612 124.418 94.9545 116.951 87.2971 109.485 81.1398 101.436 77.6149 94.2836 74.4516 87.8658 73.8002 82.7653 75.8713 80.6418 76.7127 79.7786 78.0581 79.3524 79.7944 79.3524 82.3294 79.3524 85.6972 80.2595 89.5521 82.0396ZM115.101 96.289C107.166 88.5513 98.6134 82.3611 91.0217 78.8556 82.881 75.0982 76.608 74.862 73.3607 78.1933L63.9865 87.8085C60.738 91.1398 61.1313 97.4043 65.0957 105.448 68.7911 112.948 75.1968 121.34 83.1318 129.077 94.6307 140.286 109.094 149.581 118.394 149.581 121.03 149.581 123.251 148.834 124.873 147.172L134.246 137.557C137.494 134.225 137.101 127.961 133.138 119.917 129.441 112.417 123.036 104.026 115.101 96.289" fill="#4D2B08" transform="matrix(1 0 0 1.00546 222.641 43.5861)"/><path d="M83.2682 87.8585C83.385 87.7671 83.5774 87.7184 83.8453 87.7184 86.3097 87.7184 95.0702 91.8034 107.581 104.001 121.442 117.518 125.232 126.684 124.336 127.895 123.143 128.819 113.889 125.266 100.026 111.75 86.1551 98.2262 82.3696 89.0578 83.2682 87.8585ZM97.5784 114.261C103.492 120.026 109.597 124.916 114.77 128.025 118.622 130.344 121.62 131.497 123.82 131.497 125.091 131.497 126.098 131.112 126.847 130.342 128.893 128.245 128.036 124.314 124.225 118.327 120.984 113.237 115.943 107.257 110.028 101.491 104.114 95.724 98.0095 90.8354 92.8372 87.7245 86.7553 84.0669 82.8067 83.3071 80.7599 85.4087 78.7132 87.5066 79.5704 91.4369 83.3814 97.4226 86.6226 102.515 91.6634 108.494 97.5784 114.261" fill="#4D2B08" transform="matrix(1 0 0 1.00546 222.641 43.5861)"/><path d="M86.4314 21.0642 88.6341 18.5791C88.8727 19.6421 89.2745 20.8377 89.8796 22.1807L86.5094 25.9869C85.7143 23.7088 85.6607 21.9348 86.4314 21.0642ZM116.826 25.355C128.7 35.8688 132.93 45.7824 130.736 48.2602 129.602 49.5399 126.321 49.2927 122.169 47.6124 117.269 45.6302 111.638 41.9409 106.313 37.2252 100.989 32.5107 96.647 27.3676 94.0852 22.7445 91.9154 18.8263 91.2713 15.5997 92.4049 14.3188 92.881 13.7806 93.7443 13.5006 94.9253 13.5006 99.1735 13.5006 107.535 17.1265 116.826 25.355ZM119.866 55.5255 123.237 51.7193C124.643 52.1564 125.879 52.4109 126.962 52.5205L124.761 55.0068C123.99 55.8774 122.222 56.0381 119.866 55.5255ZM111.885 52.277 115.482 48.2163C116.929 49.0455 118.353 49.7736 119.734 50.3849L116.21 54.3627C116.205 54.3615 116.201 54.3591 116.197 54.3578 114.811 53.7965 113.364 53.0952 111.885 52.277ZM105.008 47.7817 108.65 43.6687C109.916 44.6269 111.186 45.5243 112.448 46.3522L108.825 50.4433C107.56 49.63 106.284 48.7399 105.008 47.7817ZM98.4867 42.2721 102.135 38.153C102.74 38.7241 103.357 39.2914 103.989 39.8515 104.621 40.4104 105.258 40.9547 105.898 41.4868L102.25 45.6058C101.611 45.0762 100.973 44.5307 100.341 43.9706 99.708 43.4105 99.0907 42.8431 98.4867 42.2721ZM95.9931 39.798C94.8876 38.6473 93.8502 37.4882 92.8895 36.3327L96.513 32.2416C97.4859 33.3935 98.5318 34.5441 99.6349 35.6862ZM88.1044 29.4753 91.6269 25.4974C92.4013 26.7942 93.2962 28.1189 94.2958 29.4558L90.6991 33.5164C89.708 32.1479 88.8374 30.7976 88.1117 29.4887 88.1093 29.485 88.1068 29.4802 88.1044 29.4753ZM98.0168 46.5957C103.631 51.5684 109.62 55.4792 114.88 57.6076 117.969 58.858 120.372 59.3329 122.239 59.3329 124.884 59.3329 126.456 58.382 127.387 57.3312L133.361 50.5858C138.283 45.0251 129.714 32.0821 119.15 22.7286 108.587 13.3752 94.7061 6.43372 89.7786 11.9944L83.8063 18.7398C82.2186 20.5333 81.1447 24.1483 85.0446 31.1884 87.7939 36.1513 92.4013 41.6243 98.0168 46.5957" fill="#4D2B08" transform="matrix(1 0 0 1.00546 222.641 43.5861)"/><path d="M58.6255 73.3168 52.0006 69.0894C52.6824 68.1019 53.3521 67.0938 54.0084 66.0649 54.6586 65.047 55.2905 64.0121 55.903 62.9674L62.5327 67.196C61.9312 68.2188 61.2993 69.2525 60.6357 70.2936 59.9782 71.3237 59.3073 72.3318 58.6255 73.3168ZM44.8936 88.5013C44.8022 88.572 44.7109 88.6414 44.6208 88.7108L38.1664 84.5929C39.8625 83.2146 41.5781 81.6244 43.2851 79.8528L49.8503 84.0425C48.1908 85.7265 46.5275 87.2253 44.8936 88.5013ZM34.1971 92.2807 29.8832 89.5278C31.5123 88.9835 33.2729 88.0849 35.1529 86.8296L41.4612 90.8537C38.2979 92.6983 35.6984 93.2377 34.1971 92.2807ZM52.2843 81.4357 45.6911 77.2289C47.1351 75.5791 48.5621 73.8112 49.9538 71.9434L56.5726 76.1672C55.17 78.0386 53.7344 79.8029 52.2843 81.4357ZM23.5347 74.8729C25.0518 68.326 28.5609 60.531 33.4142 52.9235 38.2675 45.3173 43.8586 38.8507 49.1551 34.717 52.6971 31.9531 55.8482 30.4713 58.0459 30.4713 58.7533 30.4713 59.3609 30.6247 59.8528 30.9376 64.023 33.5992 61.4357 47.9046 51.0521 64.1777 46.1988 71.7851 40.6089 78.2517 35.3099 82.3866 30.632 86.0382 26.631 87.4518 24.6147 86.166 22.5971 84.879 22.1941 80.6564 23.5347 74.8729ZM71.2396 44.2628 64.9045 40.2217C65.243 38.0605 65.3344 36.0661 65.1371 34.3091L69.4352 37.0523C70.973 38.0337 71.5915 40.6003 71.2396 44.2628ZM60.6138 53.8075 67.2314 58.0301C66.3766 59.9916 65.3855 62.0347 64.2544 64.1363L57.6222 59.9052C58.7107 57.8803 59.7152 55.836 60.6138 53.8075ZM64.1387 43.8927 70.6187 48.0264C70.1609 50.0646 69.4802 52.3159 68.5743 54.7268L61.9799 50.52C62.8639 48.2431 63.5944 46.0149 64.1387 43.8927ZM71.3212 34.096 61.7376 27.9813C58.2663 25.7653 53.167 27.1387 46.9988 31.9518 41.3954 36.3254 35.5206 43.1037 30.4579 51.0375 25.3952 58.9725 21.7241 67.1559 20.1181 74.0815 18.3514 81.7036 19.2549 86.9051 22.7286 89.1211L32.311 95.2358C33.391 95.9249 34.6269 96.2671 36.0028 96.2671 39.0565 96.2671 42.7993 94.5832 47.0511 91.2653 52.6544 86.8917 58.5293 80.1134 63.592 72.1796 73.0478 57.3592 78.9701 38.9761 71.3212 34.096" fill="#4D2B08" transform="matrix(1 0 0 1.00546 222.641 43.5861)"/><path d="M129.165 89.5996C128.162 87.0086 126.583 84.448 124.101 82.747 126.583 81.0461 128.162 78.4843 129.165 75.8932 130.17 78.4843 131.747 81.0461 134.229 82.747 131.747 84.448 130.17 87.0086 129.165 89.5996ZM140.344 82.9236C140.347 82.8919 140.349 82.8603 140.35 82.8286 140.351 82.8006 140.353 82.7738 140.353 82.747 140.353 82.719 140.351 82.6922 140.35 82.6642 140.349 82.6326 140.347 82.6009 140.344 82.5693 140.341 82.5449 140.338 82.5218 140.334 82.4986 140.329 82.4646 140.324 82.4292 140.317 82.3951 140.316 82.3866 140.314 82.3793 140.313 82.3708 140.31 82.355 140.303 82.3391 140.3 82.3233 140.293 82.2917 140.284 82.26 140.274 82.2283 140.266 82.2016 140.256 82.1748 140.246 82.148 140.236 82.1224 140.228 82.0968 140.217 82.0713 140.205 82.0408 140.191 82.0116 140.177 81.9836 140.167 81.9617 140.156 81.941 140.145 81.9191 140.129 81.8911 140.112 81.8618 140.095 81.8326 140.083 81.8131 140.07 81.7924 140.056 81.773 140.039 81.7474 140.022 81.7218 140.003 81.6975 139.987 81.6743 139.97 81.6536 139.952 81.6317 139.936 81.6122 139.919 81.5928 139.902 81.5733 139.879 81.5477 139.854 81.5234 139.83 81.499 139.818 81.4868 139.804 81.4747 139.791 81.4625 139.76 81.4333 139.729 81.4053 139.696 81.3785 139.687 81.3724 139.679 81.3663 139.672 81.3602 139.633 81.331 139.592 81.3018 139.552 81.275 139.547 81.2725 139.544 81.2701 139.54 81.2677 139.495 81.2397 139.45 81.2141 139.404 81.1897 139.401 81.1885 139.399 81.1873 139.396 81.1861 139.349 81.1617 139.3 81.1398 139.251 81.1203 139.248 81.1191 139.244 81.1167 139.241 81.1155 139.192 81.0972 139.143 81.0802 139.093 81.0656 139.087 81.0631 139.08 81.0619 139.074 81.0607 139.041 81.0509 139.009 81.0412 138.975 81.0339 131.012 79.2879 130.92 66.7163 130.918 66.5203 130.918 66.5154 130.918 66.5093 130.918 66.5057 130.918 66.4716 130.915 66.4375 130.913 66.4046 130.911 66.3815 130.911 66.3571 130.909 66.334 130.905 66.2889 130.896 66.2451 130.889 66.2001 130.887 66.1879 130.885 66.1745 130.883 66.1623 130.872 66.1087 130.859 66.0564 130.843 66.0052 130.842 66.0016 130.842 65.9979 130.84 65.9955 130.739 65.668 130.545 65.3806 130.288 65.1663 130.285 65.1651 130.285 65.1639 130.284 65.1639 130.246 65.1322 130.207 65.103 130.167 65.0762 130.161 65.0714 130.155 65.0653 130.148 65.0616 130.115 65.0385 130.079 65.019 130.044 64.9983 130.029 64.9898 130.017 64.9813 130.003 64.9727 129.973 64.9569 129.944 64.9447 129.915 64.9301 129.893 64.9204 129.871 64.9082 129.848 64.8985 129.825 64.8887 129.801 64.8802 129.776 64.8717 129.747 64.8607 129.718 64.8498 129.687 64.84 129.667 64.8327 129.646 64.8291 129.625 64.823 129.59 64.8145 129.556 64.8035 129.519 64.7962 129.5 64.7925 129.479 64.7901 129.46 64.7877 129.422 64.7804 129.384 64.7743 129.346 64.7694 129.322 64.767 129.296 64.767 129.272 64.7657 129.238 64.7633 129.204 64.7609 129.17 64.7609 129.169 64.7609 129.166 64.7609 129.165 64.7609 129.164 64.7609 129.161 64.7609 129.16 64.7609 129.126 64.7609 129.092 64.7633 129.057 64.7657 129.034 64.767 129.009 64.767 128.985 64.7694 128.943 64.7743 128.903 64.7816 128.862 64.7889 128.845 64.7913 128.828 64.7925 128.812 64.7962 128.769 64.8047 128.729 64.8157 128.689 64.8278 128.674 64.8315 128.658 64.8352 128.644 64.84 128.606 64.851 128.568 64.8656 128.532 64.8802 128.516 64.8863 128.499 64.8912 128.483 64.8985 128.45 64.9119 128.42 64.9277 128.388 64.9435 128.369 64.9533 128.349 64.9618 128.33 64.9715 128.304 64.9861 128.281 65.0007 128.257 65.0166 128.232 65.0312 128.208 65.0446 128.184 65.0604 128.167 65.0726 128.151 65.086 128.132 65.0981 128.104 65.1188 128.076 65.1395 128.048 65.1615 128.038 65.1712 128.027 65.1822 128.016 65.1919 127.984 65.2187 127.954 65.2467 127.923 65.2759 127.918 65.282 127.913 65.2881 127.907 65.2942 127.873 65.3283 127.841 65.3636 127.81 65.4013 127.807 65.4038 127.806 65.4074 127.804 65.4099 127.7 65.5377 127.614 65.6802 127.548 65.8348 127.548 65.836 127.547 65.8384 127.547 65.8397 127.526 65.8908 127.507 65.9419 127.491 65.9955 127.488 66.0004 127.487 66.0077 127.485 66.0138 127.47 66.0625 127.458 66.1112 127.448 66.1623 127.445 66.1757 127.443 66.1903 127.441 66.2037 127.434 66.2476 127.426 66.2902 127.421 66.334 127.419 66.3571 127.419 66.3815 127.418 66.4046 127.415 66.4375 127.412 66.4716 127.412 66.5057 127.412 66.5093 127.412 66.5154 127.412 66.5203 127.412 66.7163 127.318 79.2879 119.355 81.0339 119.318 81.0412 119.282 81.0522 119.247 81.0631 119.245 81.0631 119.245 81.0631 119.245 81.0631 118.968 81.1435 118.725 81.2859 118.528 81.4734 118.523 81.4771 118.518 81.482 118.514 81.4856 118.481 81.5173 118.449 81.5514 118.419 81.5855 118.409 81.5964 118.399 81.6074 118.389 81.6196 118.365 81.6488 118.342 81.678 118.32 81.7084 118.307 81.7255 118.293 81.745 118.281 81.7632 118.263 81.7888 118.246 81.8156 118.23 81.8424 118.215 81.8655 118.202 81.8886 118.19 81.9118 118.176 81.9386 118.163 81.9641 118.15 81.9909 118.137 82.0165 118.126 82.0408 118.115 82.0664 118.103 82.0956 118.092 82.1236 118.083 82.1529 118.074 82.1772 118.064 82.2016 118.057 82.2271 118.047 82.2588 118.037 82.2917 118.03 82.3245 118.027 82.3404 118.02 82.355 118.017 82.3708 118.016 82.3793 118.014 82.3866 118.013 82.3951 118.006 82.4292 118.001 82.4646 117.996 82.4986 117.992 82.5218 117.989 82.5449 117.986 82.5693 117.984 82.6009 117.981 82.6326 117.98 82.6642 117.979 82.6922 117.977 82.719 117.977 82.747 117.977 82.7738 117.979 82.8006 117.98 82.8286 117.981 82.8603 117.984 82.8919 117.986 82.9236 117.989 82.9467 117.992 82.9711 117.996 82.9942 118.001 83.0295 118.006 83.0636 118.013 83.0977 118.014 83.1062 118.016 83.1135 118.017 83.122 118.019 83.1294 118.023 83.1367 118.024 83.144 118.045 83.2341 118.072 83.3217 118.106 83.4057 118.111 83.4179 118.117 83.4277 118.122 83.4398 118.154 83.5165 118.193 83.5908 118.236 83.6614 118.242 83.6712 118.247 83.6809 118.253 83.6894 118.298 83.7613 118.35 83.8282 118.406 83.8928 118.417 83.9062 118.428 83.9196 118.441 83.9317 118.497 83.9938 118.557 84.0511 118.623 84.1046 118.635 84.1144 118.646 84.1229 118.658 84.1314 118.727 84.185 118.8 84.2349 118.876 84.2775 118.881 84.2812 118.887 84.2824 118.892 84.2861 118.965 84.325 119.041 84.3591 119.121 84.3883 119.133 84.3932 119.147 84.3993 119.16 84.4042 119.223 84.4261 119.288 84.4443 119.355 84.459 127.318 86.205 127.412 98.7765 127.412 98.9726 127.412 98.9774 127.412 98.9835 127.412 98.9872 127.412 99.0213 127.415 99.0541 127.418 99.0882 127.419 99.1126 127.419 99.1357 127.421 99.1589 127.426 99.2039 127.434 99.2477 127.441 99.2928 127.443 99.305 127.445 99.3184 127.448 99.3305 127.458 99.3841 127.471 99.4365 127.487 99.4888 127.488 99.4913 127.49 99.4949 127.49 99.4973 127.592 99.8261 127.787 100.112 128.044 100.327 128.045 100.328 128.046 100.329 128.047 100.33 128.085 100.361 128.124 100.389 128.163 100.417 128.17 100.421 128.176 100.426 128.182 100.431 128.217 100.454 128.251 100.475 128.286 100.495 128.301 100.503 128.314 100.513 128.327 100.52 128.357 100.535 128.387 100.548 128.415 100.563 128.438 100.572 128.459 100.585 128.482 100.594 128.505 100.604 128.531 100.611 128.555 100.621 128.584 100.632 128.612 100.644 128.643 100.653 128.663 100.66 128.685 100.664 128.705 100.67 128.74 100.678 128.775 100.689 128.811 100.697 128.83 100.7 128.851 100.703 128.87 100.706 128.908 100.712 128.946 100.72 128.985 100.723 129.009 100.726 129.035 100.726 129.059 100.727 129.092 100.728 129.126 100.732 129.16 100.732 129.161 100.732 129.164 100.732 129.165 100.732 129.166 100.732 129.169 100.732 129.17 100.732 129.205 100.732 129.238 100.728 129.273 100.727 129.298 100.726 129.322 100.726 129.345 100.723 129.388 100.719 129.428 100.711 129.468 100.704 129.485 100.702 129.502 100.7 129.519 100.697 129.561 100.688 129.601 100.676 129.641 100.665 129.657 100.661 129.672 100.658 129.686 100.653 129.725 100.642 129.762 100.627 129.799 100.613 129.815 100.607 129.831 100.602 129.847 100.594 129.88 100.581 129.91 100.565 129.942 100.549 129.961 100.54 129.982 100.531 130.001 100.52 130.026 100.507 130.049 100.491 130.073 100.477 130.098 100.463 130.123 100.448 130.146 100.432 130.163 100.42 130.18 100.407 130.198 100.395 130.226 100.374 130.255 100.353 130.282 100.331 130.294 100.322 130.303 100.311 130.314 100.301 130.346 100.274 130.378 100.246 130.407 100.217 130.413 100.211 130.417 100.205 130.423 100.2 130.457 100.165 130.49 100.129 130.52 100.092 130.523 100.089 130.524 100.087 130.526 100.084 130.631 99.9552 130.717 99.8127 130.782 99.6581 130.782 99.6568 130.783 99.6544 130.783 99.6532 130.805 99.6021 130.825 99.5509 130.84 99.4986 130.843 99.4913 130.843 99.4852 130.845 99.4791 130.86 99.4304 130.872 99.3817 130.883 99.3317 130.885 99.3171 130.887 99.3025 130.889 99.2891 130.898 99.2453 130.905 99.2027 130.909 99.1589 130.911 99.1357 130.911 99.1126 130.913 99.0882 130.915 99.0541 130.918 99.0213 130.918 98.9872 130.918 98.9835 130.918 98.9774 130.918 98.9726 130.92 98.7765 131.012 86.205 138.975 84.459 139.042 84.4443 139.107 84.4261 139.17 84.4042 139.183 84.3993 139.197 84.3932 139.21 84.3883 139.289 84.3591 139.366 84.325 139.438 84.2861 139.444 84.2824 139.449 84.2812 139.454 84.2775 139.532 84.2349 139.603 84.185 139.673 84.1314 139.684 84.1229 139.696 84.1144 139.707 84.1046 139.773 84.0511 139.833 83.9938 139.891 83.9317 139.903 83.9196 139.913 83.9062 139.924 83.8928 139.98 83.8282 140.032 83.7613 140.078 83.6894 140.083 83.6809 140.088 83.6712 140.094 83.6614 140.138 83.5908 140.176 83.5165 140.208 83.4398 140.213 83.4277 140.219 83.4179 140.224 83.4057 140.258 83.3217 140.285 83.2341 140.306 83.144 140.308 83.1367 140.311 83.1294 140.313 83.122 140.314 83.1135 140.316 83.1062 140.317 83.0977 140.324 83.0636 140.329 83.0295 140.334 82.9942 140.338 82.9711 140.341 82.9467 140.344 82.9236" fill="#4D2B08" transform="matrix(1 0 0 1.00546 222.641 43.5861)"/><path d="M37.9448 133.302C36.7893 130.06 34.8704 126.78 31.6889 124.74 34.8704 122.7 36.7893 119.419 37.9448 116.177 39.1015 119.419 41.0204 122.7 44.202 124.74 41.0204 126.78 39.1015 130.06 37.9448 133.302ZM50.492 124.659C50.4908 124.626 50.4896 124.594 50.4859 124.563 50.4835 124.539 50.4798 124.516 50.4762 124.492 50.4713 124.457 50.4664 124.423 50.4591 124.388 50.4579 124.38 50.4579 124.373 50.4555 124.364 50.4518 124.348 50.447 124.332 50.4421 124.317 50.4348 124.285 50.4263 124.253 50.4165 124.222 50.408 124.194 50.3983 124.168 50.3885 124.141 50.38 124.116 50.3702 124.09 50.3593 124.065 50.3471 124.035 50.3337 124.005 50.3191 123.976 50.3094 123.955 50.2984 123.934 50.2875 123.914 50.2716 123.883 50.2546 123.854 50.2375 123.826 50.2254 123.805 50.2132 123.787 50.201 123.767 50.1815 123.741 50.1633 123.714 50.1438 123.688 50.1279 123.668 50.1121 123.648 50.0963 123.627 50.078 123.607 50.0598 123.585 50.0415 123.564 50.0208 123.541 49.9989 123.518 49.9757 123.496 49.9611 123.48 49.9453 123.465 49.9295 123.452 49.9015 123.425 49.8735 123.401 49.843 123.377 49.8309 123.367 49.8187 123.358 49.8065 123.349 49.7724 123.323 49.7371 123.297 49.7006 123.273 49.6921 123.268 49.6835 123.262 49.6738 123.256 49.6348 123.232 49.5946 123.209 49.5545 123.188 49.5447 123.183 49.5362 123.178 49.5277 123.173 49.4863 123.154 49.4449 123.134 49.4023 123.117 49.3901 123.112 49.3791 123.108 49.3682 123.104 49.328 123.088 49.2866 123.075 49.244 123.061 49.2294 123.056 49.2135 123.053 49.1977 123.049 49.1709 123.042 49.1454 123.033 49.1174 123.027 39.7907 120.982 39.6981 106.355 39.6981 106.168 39.6981 106.165 39.6981 106.158 39.6981 106.155 39.6981 106.122 39.6957 106.091 39.6932 106.06 39.692 106.035 39.692 106.009 39.6896 105.983 39.6847 105.942 39.6786 105.902 39.6713 105.863 39.6677 105.845 39.6665 105.828 39.6628 105.811 39.6531 105.762 39.6397 105.713 39.6263 105.664 39.6238 105.658 39.6226 105.651 39.6202 105.645 39.4363 105.046 38.9396 104.586 38.3223 104.45 38.3162 104.449 38.3089 104.447 38.3028 104.446 38.2614 104.437 38.2188 104.431 38.1774 104.426 38.1603 104.424 38.1445 104.42 38.1274 104.419 38.0946 104.415 38.0605 104.414 38.0252 104.413 38.0008 104.412 37.9765 104.409 37.9509 104.409 37.9485 104.409 37.946 104.409 37.9448 104.409 37.9436 104.409 37.9424 104.409 37.9399 104.409 37.9144 104.409 37.89 104.412 37.8644 104.413 37.8303 104.414 37.7963 104.415 37.7634 104.419 37.7451 104.42 37.7269 104.425 37.7086 104.426 37.6684 104.432 37.6282 104.437 37.588 104.446 37.5783 104.448 37.5673 104.452 37.5564 104.453 37.5113 104.464 37.4639 104.475 37.42 104.489 37.4151 104.491 37.4115 104.492 37.4078 104.493 36.9196 104.65 36.5251 105.015 36.3291 105.484 36.3278 105.487 36.3266 105.489 36.3254 105.492 36.3047 105.541 36.2864 105.593 36.2706 105.644 36.267 105.653 36.2658 105.663 36.2621 105.673 36.2499 105.718 36.2377 105.764 36.228 105.811 36.2244 105.829 36.2219 105.847 36.2183 105.865 36.2122 105.904 36.2049 105.943 36.2012 105.983 36.1988 106.009 36.1988 106.035 36.1976 106.06 36.1951 106.091 36.1915 106.122 36.1915 106.155 36.1915 106.158 36.1915 106.165 36.1915 106.168 36.1915 106.355 36.0989 120.982 26.7722 123.027 26.7394 123.034 26.7101 123.044 26.6785 123.053 26.6712 123.055 26.6627 123.056 26.6554 123.059 26.6042 123.073 26.5543 123.09 26.5056 123.11 26.5044 123.111 26.5019 123.111 26.5007 123.112 26.3424 123.174 26.1975 123.258 26.0673 123.361 26.066 123.362 26.0648 123.362 26.0636 123.363 26.0234 123.395 25.9845 123.429 25.9467 123.464 25.9406 123.469 25.9358 123.475 25.9285 123.481 25.8968 123.513 25.8664 123.545 25.8371 123.578 25.8262 123.59 25.8164 123.602 25.8055 123.614 25.7823 123.642 25.7592 123.671 25.7373 123.7 25.7239 123.719 25.7105 123.738 25.6971 123.756 25.6801 123.783 25.663 123.809 25.6472 123.836 25.6326 123.859 25.6192 123.882 25.607 123.906 25.5924 123.932 25.5802 123.959 25.5668 123.984 25.5547 124.01 25.5437 124.034 25.5327 124.061 25.5206 124.089 25.5096 124.117 25.4987 124.146 25.4901 124.17 25.4816 124.195 25.4743 124.22 25.4646 124.252 25.4548 124.285 25.4475 124.318 25.4439 124.334 25.4378 124.348 25.4341 124.364 25.4329 124.373 25.4317 124.38 25.4305 124.388 25.4232 124.423 25.4183 124.457 25.4134 124.492 25.4098 124.516 25.4061 124.539 25.4037 124.563 25.4 124.594 25.3988 124.626 25.3976 124.659 25.3964 124.686 25.3939 124.714 25.3939 124.74 25.3939 124.767 25.3964 124.794 25.3976 124.821 25.3988 124.854 25.4 124.885 25.4037 124.918 25.4061 124.941 25.4098 124.964 25.4134 124.987 25.4183 125.023 25.4232 125.057 25.4305 125.091 25.4317 125.099 25.4329 125.107 25.4341 125.115 25.4353 125.123 25.439 125.13 25.4414 125.137 25.4621 125.227 25.4889 125.315 25.523 125.399 25.5279 125.411 25.534 125.422 25.5388 125.433 25.5717 125.51 25.6095 125.584 25.6533 125.655 25.6594 125.664 25.6642 125.674 25.6691 125.684 25.7154 125.755 25.7677 125.822 25.8237 125.886 25.8347 125.899 25.8457 125.913 25.8566 125.925 25.9138 125.987 25.9759 126.044 26.0405 126.098 26.0527 126.108 26.0636 126.116 26.0758 126.126 26.144 126.178 26.2158 126.228 26.2937 126.271 26.2986 126.274 26.3047 126.276 26.3096 126.279 26.3826 126.318 26.4581 126.352 26.5385 126.382 26.5506 126.388 26.564 126.393 26.5774 126.397 26.6407 126.419 26.7053 126.439 26.7722 126.453 36.0989 128.498 36.1915 143.125 36.1915 143.311 36.1915 143.316 36.1915 143.322 36.1915 143.326 36.1915 143.357 36.1951 143.389 36.1976 143.42 36.1988 143.446 36.1988 143.472 36.2012 143.496 36.2049 143.537 36.2122 143.578 36.2195 143.618 36.2231 143.635 36.2244 143.652 36.228 143.669 36.2377 143.719 36.2511 143.766 36.2645 143.815 36.267 143.821 36.2682 143.828 36.2694 143.834 36.4545 144.435 36.9525 144.896 37.571 145.03 37.5771 145.031 37.582 145.033 37.588 145.034 37.6294 145.042 37.6721 145.048 37.7147 145.053 37.7305 145.056 37.7463 145.059 37.7622 145.062 37.7963 145.064 37.8303 145.065 37.8644 145.067 37.89 145.068 37.9144 145.07 37.9399 145.07 37.9424 145.07 37.9436 145.07 37.9448 145.07 37.946 145.07 37.9485 145.07 37.9509 145.07 37.9765 145.07 38.0008 145.068 38.0264 145.067 38.0605 145.065 38.0946 145.064 38.1274 145.062 38.1457 145.059 38.1627 145.056 38.181 145.053 38.2212 145.048 38.2626 145.042 38.3028 145.034 38.3125 145.033 38.321 145.029 38.3308 145.026 38.3783 145.017 38.4245 145.005 38.4708 144.99 38.4744 144.989 38.4781 144.988 38.483 144.986 38.97 144.829 39.3645 144.465 39.5618 143.996 39.563 143.993 39.5642 143.99 39.5654 143.988 39.5849 143.938 39.6044 143.888 39.6202 143.836 39.6226 143.826 39.6251 143.816 39.6287 143.806 39.6409 143.761 39.6531 143.715 39.6628 143.669 39.6665 143.651 39.6689 143.634 39.6713 143.614 39.6786 143.575 39.6847 143.536 39.6896 143.496 39.692 143.472 39.692 143.446 39.6932 143.42 39.6957 143.389 39.6981 143.357 39.6981 143.326 39.6981 143.322 39.6981 143.316 39.6981 143.311 39.6981 143.125 39.7907 128.498 49.1174 126.453 49.1843 126.439 49.2489 126.419 49.3122 126.397 49.3256 126.393 49.339 126.388 49.3523 126.382 49.4315 126.352 49.5082 126.318 49.58 126.279 49.5861 126.276 49.591 126.274 49.5959 126.271 49.6738 126.228 49.7456 126.178 49.815 126.126 49.826 126.116 49.8382 126.108 49.8491 126.098 49.9149 126.044 49.9757 125.987 50.033 125.925 50.0452 125.913 50.0549 125.899 50.0659 125.886 50.1219 125.822 50.1742 125.755 50.2205 125.684 50.2266 125.674 50.2302 125.664 50.2375 125.655 50.2801 125.584 50.3179 125.51 50.3508 125.433 50.3556 125.422 50.3617 125.411 50.3666 125.399 50.4007 125.315 50.4275 125.227 50.4482 125.137 50.4506 125.13 50.453 125.123 50.4555 125.115 50.4579 125.107 50.4579 125.099 50.4591 125.091 50.4664 125.057 50.4713 125.023 50.4762 124.987 50.4798 124.964 50.4835 124.941 50.4859 124.918 50.4896 124.885 50.4908 124.854 50.492 124.821 50.4932 124.794 50.4957 124.767 50.4957 124.74 50.4957 124.714 50.4932 124.686 50.492 124.659" fill="#4D2B08" transform="matrix(1 0 0 1.00546 222.641 43.5861)"/></g></svg>