<svg width="167" height="165" xmlns="http://www.w3.org/2000/svg" xmlns:xlink="http://www.w3.org/1999/xlink" overflow="hidden"><defs><clipPath id="clip0"><rect x="22" y="24" width="167" height="165"/></clipPath></defs><g clip-path="url(#clip0)" transform="translate(-22 -24)"><path d="M162.928 57.366C160.358 59.3338 159.871 63.0118 161.839 65.5809 161.994 65.7832 162.162 65.9751 162.342 66.1554 163.449 67.2565 164.071 68.7541 164.07 70.3158 164.065 72.2575 162.487 73.8275 160.545 73.8224 159.459 73.8195 158.435 73.3146 157.771 72.4546 145.114 57.073 123.785 46.8772 99.614 46.8772L98.8523 46.8772C95.2436 46.9377 91.6775 46.0915 88.4807 44.4161L83.3242 41.6328C74.7308 37.3621 65.2628 35.1455 55.6667 35.1579L47.9026 35.1579C44.1487 35.1659 41.1119 38.2156 41.1199 41.9695 41.1227 43.2983 41.515 44.5971 42.2481 45.7053L49.807 57.073C51.5211 59.6651 51.0445 63.1268 48.6937 65.1593 44.9138 68.4714 41.5493 72.2295 38.6737 76.3512 36.3456 79.8781 32.4108 82.0103 28.1849 82.0351L23.2628 82.0351C16.9037 82.0189 11.7355 87.1608 11.7193 93.5199 11.7192 93.5395 11.7192 93.559 11.7193 93.5786L11.7193 103.54C11.6926 108.282 14.526 112.572 18.8974 114.41L19.8349 114.82C26.396 117.536 31.8116 122.444 35.1579 128.707 40.0092 137.786 47.0607 145.502 55.6667 151.15 57.5695 152.483 58.6712 154.687 58.5965 157.009L58.5965 167C58.3421 171.507 61.7163 175.401 66.214 175.789L78.6658 175.789C81.9148 175.663 84.7318 173.503 85.6974 170.399L86.8107 167.469C87.6349 165.158 89.9015 163.683 92.3481 163.865 94.7505 164.07 97.153 164.187 99.614 164.187 104.048 164.192 108.476 163.849 112.857 163.162 114.921 162.854 116.845 164.278 117.153 166.342 117.185 166.56 117.199 166.78 117.193 167 116.939 171.507 120.313 175.401 124.811 175.789L137.262 175.789C140.511 175.663 143.328 173.503 144.294 170.399L163.66 129.674C164.588 127.95 165.429 126.18 166.18 124.371L166.326 124.078C170.441 113.946 171.08 102.735 168.143 92.2016 167.226 88.7715 168.222 85.1135 170.75 82.621 177.311 75.9556 177.504 65.3199 171.19 58.4207 169.121 55.9882 165.541 55.5311 162.928 57.366ZM58.0105 93.5493C54.7743 93.5493 52.1509 90.9258 52.1509 87.6897 52.1509 84.4535 54.7743 81.83 58.0105 81.83 61.2467 81.83 63.8702 84.4535 63.8702 87.6897 63.8702 90.9258 61.2467 93.5493 58.0105 93.5493ZM121.705 66.6535C121.138 69.3598 118.757 71.3015 115.992 71.3119 115.593 71.3567 115.19 71.3567 114.791 71.3119 104.674 68.985 94.1804 68.8253 83.9981 70.8432 80.8819 71.7163 77.6479 69.898 76.7747 66.7818 75.9016 63.6656 77.7199 60.4316 80.8361 59.5585 81.0474 59.4993 81.2618 59.452 81.4784 59.4168 93.2696 56.983 105.443 57.0829 117.193 59.7098 120.355 60.3834 122.374 63.4906 121.705 66.6535Z" fill="#4D2B08" transform="matrix(1 0 0 1.00567 10.8667 12.2143)"/><path d="M110.454 24.6398C110.454 31.7756 104.67 37.5603 97.5339 37.5603 90.3981 37.5603 84.6133 31.7756 84.6133 24.6398 84.6133 17.504 90.3981 11.7193 97.5339 11.7193 104.67 11.7193 110.454 17.504 110.454 24.6398Z" fill="#4D2B08" transform="matrix(1 0 0 1.00567 10.8667 12.2143)"/></g></svg>